<mxfile host="Electron" modified="2024-06-12T14:27:13.941Z" agent="Mozilla/5.0 (Windows NT 10.0; Win64; x64) AppleWebKit/537.36 (KHTML, like Gecko) draw.io/24.5.1 Chrome/124.0.6367.207 Electron/30.0.6 Safari/537.36" etag="dl36YR8wQGbWfTtcIqw6" version="24.5.1" type="device">
  <diagram name="Página-1" id="UtZLhoic3mdD72n7Qbd9">
    <mxGraphModel dx="2062" dy="1900" grid="1" gridSize="10" guides="1" tooltips="1" connect="1" arrows="1" fold="1" page="1" pageScale="1" pageWidth="827" pageHeight="1169" background="none" math="0" shadow="0">
      <root>
        <mxCell id="0" />
        <mxCell id="1" parent="0" />
        <mxCell id="LOjJa33kq37aPNoS52nW-3" value="" style="edgeStyle=orthogonalEdgeStyle;rounded=0;orthogonalLoop=1;jettySize=auto;html=1;fontColor=#0D0D0D;strokeColor=#66FFFF;fillColor=#E6E6E6;strokeWidth=2;" parent="1" source="LOjJa33kq37aPNoS52nW-1" target="LOjJa33kq37aPNoS52nW-2" edge="1">
          <mxGeometry relative="1" as="geometry" />
        </mxCell>
        <mxCell id="LOjJa33kq37aPNoS52nW-5" value="" style="edgeStyle=orthogonalEdgeStyle;rounded=0;orthogonalLoop=1;jettySize=auto;html=1;fontColor=#0D0D0D;strokeColor=#66FFFF;fillColor=#E6E6E6;strokeWidth=2;" parent="1" source="LOjJa33kq37aPNoS52nW-1" target="LOjJa33kq37aPNoS52nW-4" edge="1">
          <mxGeometry relative="1" as="geometry" />
        </mxCell>
        <mxCell id="2hEsS9jjBGfZLcal9isF-10" style="edgeStyle=orthogonalEdgeStyle;rounded=0;orthogonalLoop=1;jettySize=auto;html=1;exitX=0;exitY=0.5;exitDx=0;exitDy=0;entryX=1;entryY=0.5;entryDx=0;entryDy=0;strokeColor=#66FFFF;fillColor=#E6E6E6;strokeWidth=2;" parent="1" source="LOjJa33kq37aPNoS52nW-1" target="LOjJa33kq37aPNoS52nW-70" edge="1">
          <mxGeometry relative="1" as="geometry" />
        </mxCell>
        <mxCell id="2hEsS9jjBGfZLcal9isF-18" style="edgeStyle=orthogonalEdgeStyle;rounded=0;orthogonalLoop=1;jettySize=auto;html=1;entryX=0.5;entryY=0;entryDx=0;entryDy=0;strokeColor=#66FFFF;fillColor=#E6E6E6;strokeWidth=2;" parent="1" source="LOjJa33kq37aPNoS52nW-1" target="LOjJa33kq37aPNoS52nW-6" edge="1">
          <mxGeometry relative="1" as="geometry" />
        </mxCell>
        <mxCell id="2hEsS9jjBGfZLcal9isF-21" style="edgeStyle=orthogonalEdgeStyle;rounded=0;orthogonalLoop=1;jettySize=auto;html=1;exitX=0;exitY=0.5;exitDx=0;exitDy=0;entryX=1;entryY=0.5;entryDx=0;entryDy=0;strokeColor=#66FFFF;fillColor=#E6E6E6;strokeWidth=2;" parent="1" source="LOjJa33kq37aPNoS52nW-1" target="LOjJa33kq37aPNoS52nW-95" edge="1">
          <mxGeometry relative="1" as="geometry" />
        </mxCell>
        <mxCell id="LOjJa33kq37aPNoS52nW-1" value="&lt;h1&gt;&lt;font style=&quot;&quot;&gt;&lt;font style=&quot;&quot;&gt;&lt;font style=&quot;font-size: 24px;&quot;&gt;BLUEPILL&lt;/font&gt;&lt;/font&gt;&lt;/font&gt;&lt;/h1&gt;" style="whiteSpace=wrap;html=1;aspect=fixed;fillColor=#E6E6E6;strokeColor=#66FFFF;fontSize=23;fontColor=#0D0D0D;strokeWidth=2;" parent="1" vertex="1">
          <mxGeometry x="200" y="183.13" width="146.25" height="146.25" as="geometry" />
        </mxCell>
        <mxCell id="LOjJa33kq37aPNoS52nW-57" value="" style="edgeStyle=orthogonalEdgeStyle;rounded=0;orthogonalLoop=1;jettySize=auto;html=1;fontColor=#0D0D0D;strokeColor=#66FFFF;fillColor=#E6E6E6;strokeWidth=2;" parent="1" source="LOjJa33kq37aPNoS52nW-2" target="LOjJa33kq37aPNoS52nW-54" edge="1">
          <mxGeometry relative="1" as="geometry" />
        </mxCell>
        <mxCell id="LOjJa33kq37aPNoS52nW-59" style="edgeStyle=orthogonalEdgeStyle;rounded=0;orthogonalLoop=1;jettySize=auto;html=1;entryX=0.5;entryY=1;entryDx=0;entryDy=0;fontColor=#0D0D0D;strokeColor=#66FFFF;fillColor=#E6E6E6;strokeWidth=2;" parent="1" source="LOjJa33kq37aPNoS52nW-2" target="LOjJa33kq37aPNoS52nW-55" edge="1">
          <mxGeometry relative="1" as="geometry" />
        </mxCell>
        <mxCell id="LOjJa33kq37aPNoS52nW-60" style="edgeStyle=orthogonalEdgeStyle;rounded=0;orthogonalLoop=1;jettySize=auto;html=1;exitX=0;exitY=0.5;exitDx=0;exitDy=0;entryX=0.5;entryY=1;entryDx=0;entryDy=0;fontColor=#0D0D0D;strokeColor=#66FFFF;fillColor=#E6E6E6;strokeWidth=2;" parent="1" source="LOjJa33kq37aPNoS52nW-2" target="LOjJa33kq37aPNoS52nW-56" edge="1">
          <mxGeometry relative="1" as="geometry">
            <Array as="points">
              <mxPoint x="126" y="90" />
            </Array>
          </mxGeometry>
        </mxCell>
        <mxCell id="2hEsS9jjBGfZLcal9isF-14" style="edgeStyle=orthogonalEdgeStyle;rounded=0;orthogonalLoop=1;jettySize=auto;html=1;strokeColor=#66FFFF;fillColor=#E6E6E6;strokeWidth=2;" parent="1" source="LOjJa33kq37aPNoS52nW-2" edge="1">
          <mxGeometry relative="1" as="geometry">
            <mxPoint x="272.5" y="180" as="targetPoint" />
          </mxGeometry>
        </mxCell>
        <mxCell id="LOjJa33kq37aPNoS52nW-2" value="&lt;h2&gt;&lt;font style=&quot;font-size: 18px;&quot;&gt;Memoria&lt;/font&gt;&lt;/h2&gt;" style="whiteSpace=wrap;html=1;fillColor=#E6E6E6;strokeColor=#66FFFF;fontSize=18;fontColor=#0D0D0D;strokeWidth=2;" parent="1" vertex="1">
          <mxGeometry x="216.25" y="60" width="112.5" height="60" as="geometry" />
        </mxCell>
        <mxCell id="OEmYBM9wP6fGd_knW8Kb-1" style="edgeStyle=orthogonalEdgeStyle;rounded=0;orthogonalLoop=1;jettySize=auto;html=1;entryX=0;entryY=0.5;entryDx=0;entryDy=0;fontColor=#0D0D0D;strokeColor=#66FFFF;fillColor=#E6E6E6;strokeWidth=2;" parent="1" source="LOjJa33kq37aPNoS52nW-4" target="LOjJa33kq37aPNoS52nW-18" edge="1">
          <mxGeometry relative="1" as="geometry" />
        </mxCell>
        <mxCell id="OEmYBM9wP6fGd_knW8Kb-2" style="edgeStyle=orthogonalEdgeStyle;rounded=0;orthogonalLoop=1;jettySize=auto;html=1;entryX=0;entryY=0.5;entryDx=0;entryDy=0;fontColor=#0D0D0D;strokeColor=#66FFFF;fillColor=#E6E6E6;strokeWidth=2;" parent="1" source="LOjJa33kq37aPNoS52nW-4" target="LOjJa33kq37aPNoS52nW-14" edge="1">
          <mxGeometry relative="1" as="geometry" />
        </mxCell>
        <mxCell id="OEmYBM9wP6fGd_knW8Kb-3" style="edgeStyle=orthogonalEdgeStyle;rounded=0;orthogonalLoop=1;jettySize=auto;html=1;entryX=0;entryY=0.5;entryDx=0;entryDy=0;fontColor=#0D0D0D;strokeColor=#66FFFF;fillColor=#E6E6E6;strokeWidth=2;" parent="1" source="LOjJa33kq37aPNoS52nW-4" target="LOjJa33kq37aPNoS52nW-21" edge="1">
          <mxGeometry relative="1" as="geometry" />
        </mxCell>
        <mxCell id="2hEsS9jjBGfZLcal9isF-15" style="edgeStyle=orthogonalEdgeStyle;rounded=0;orthogonalLoop=1;jettySize=auto;html=1;exitX=0;exitY=0.5;exitDx=0;exitDy=0;entryX=1;entryY=0.5;entryDx=0;entryDy=0;strokeColor=#66FFFF;fillColor=#E6E6E6;strokeWidth=2;" parent="1" source="LOjJa33kq37aPNoS52nW-4" target="LOjJa33kq37aPNoS52nW-1" edge="1">
          <mxGeometry relative="1" as="geometry" />
        </mxCell>
        <mxCell id="LOjJa33kq37aPNoS52nW-4" value="&lt;h2&gt;&lt;font style=&quot;font-size: 18px;&quot;&gt;Módulos&lt;/font&gt;&lt;/h2&gt;" style="whiteSpace=wrap;html=1;fillColor=#E6E6E6;strokeColor=#66FFFF;fontSize=18;fontColor=#0D0D0D;strokeWidth=2;" parent="1" vertex="1">
          <mxGeometry x="390" y="226.25" width="120" height="60" as="geometry" />
        </mxCell>
        <mxCell id="LOjJa33kq37aPNoS52nW-32" value="" style="edgeStyle=orthogonalEdgeStyle;rounded=0;orthogonalLoop=1;jettySize=auto;html=1;fontColor=#0D0D0D;strokeColor=#66FFFF;fillColor=#E6E6E6;strokeWidth=2;" parent="1" source="LOjJa33kq37aPNoS52nW-6" target="LOjJa33kq37aPNoS52nW-31" edge="1">
          <mxGeometry relative="1" as="geometry" />
        </mxCell>
        <mxCell id="LOjJa33kq37aPNoS52nW-36" value="" style="edgeStyle=orthogonalEdgeStyle;rounded=0;orthogonalLoop=1;jettySize=auto;html=1;fontColor=#0D0D0D;strokeColor=#66FFFF;fillColor=#E6E6E6;strokeWidth=2;" parent="1" source="LOjJa33kq37aPNoS52nW-6" target="LOjJa33kq37aPNoS52nW-35" edge="1">
          <mxGeometry relative="1" as="geometry" />
        </mxCell>
        <mxCell id="2hEsS9jjBGfZLcal9isF-19" style="edgeStyle=orthogonalEdgeStyle;rounded=0;orthogonalLoop=1;jettySize=auto;html=1;exitX=0.5;exitY=0;exitDx=0;exitDy=0;entryX=0.5;entryY=1;entryDx=0;entryDy=0;strokeColor=#66FFFF;fillColor=#E6E6E6;strokeWidth=2;" parent="1" source="LOjJa33kq37aPNoS52nW-6" target="LOjJa33kq37aPNoS52nW-1" edge="1">
          <mxGeometry relative="1" as="geometry" />
        </mxCell>
        <mxCell id="LOjJa33kq37aPNoS52nW-6" value="&lt;h2 style=&quot;font-size: 18px;&quot;&gt;Comunicación&lt;/h2&gt;" style="whiteSpace=wrap;html=1;fillColor=#E6E6E6;strokeColor=#66FFFF;fontSize=18;fontColor=#0D0D0D;strokeWidth=2;" parent="1" vertex="1">
          <mxGeometry x="203.13" y="365" width="140" height="70" as="geometry" />
        </mxCell>
        <mxCell id="LOjJa33kq37aPNoS52nW-50" style="edgeStyle=orthogonalEdgeStyle;rounded=0;orthogonalLoop=1;jettySize=auto;html=1;entryX=0;entryY=0.5;entryDx=0;entryDy=0;fontColor=#0D0D0D;strokeColor=#66FFFF;fillColor=#E6E6E6;strokeWidth=2;" parent="1" source="LOjJa33kq37aPNoS52nW-14" target="LOjJa33kq37aPNoS52nW-49" edge="1">
          <mxGeometry relative="1" as="geometry" />
        </mxCell>
        <mxCell id="LOjJa33kq37aPNoS52nW-14" value="ADC&lt;div&gt;(Analogic Digital Converter)&lt;/div&gt;" style="whiteSpace=wrap;html=1;fillColor=#E6E6E6;strokeColor=#66FFFF;fontColor=#0D0D0D;strokeWidth=2;" parent="1" vertex="1">
          <mxGeometry x="570" y="-40" width="120" height="60" as="geometry" />
        </mxCell>
        <mxCell id="LOjJa33kq37aPNoS52nW-46" style="edgeStyle=orthogonalEdgeStyle;rounded=0;orthogonalLoop=1;jettySize=auto;html=1;entryX=0;entryY=0.5;entryDx=0;entryDy=0;fontColor=#0D0D0D;strokeColor=#66FFFF;fillColor=#E6E6E6;strokeWidth=2;" parent="1" source="LOjJa33kq37aPNoS52nW-18" target="LOjJa33kq37aPNoS52nW-44" edge="1">
          <mxGeometry relative="1" as="geometry" />
        </mxCell>
        <mxCell id="LOjJa33kq37aPNoS52nW-47" style="edgeStyle=orthogonalEdgeStyle;rounded=0;orthogonalLoop=1;jettySize=auto;html=1;entryX=0;entryY=0.5;entryDx=0;entryDy=0;fontColor=#0D0D0D;strokeColor=#66FFFF;fillColor=#E6E6E6;strokeWidth=2;" parent="1" source="LOjJa33kq37aPNoS52nW-18" target="LOjJa33kq37aPNoS52nW-45" edge="1">
          <mxGeometry relative="1" as="geometry" />
        </mxCell>
        <mxCell id="LOjJa33kq37aPNoS52nW-18" value="I2C&lt;div&gt;(Inter-Integrated Circuit)&lt;/div&gt;" style="whiteSpace=wrap;html=1;fillColor=#E6E6E6;strokeColor=#66FFFF;fontColor=#0D0D0D;strokeWidth=2;" parent="1" vertex="1">
          <mxGeometry x="570" y="100" width="120" height="60" as="geometry" />
        </mxCell>
        <mxCell id="LOjJa33kq37aPNoS52nW-38" value="" style="edgeStyle=orthogonalEdgeStyle;rounded=0;orthogonalLoop=1;jettySize=auto;html=1;fontColor=#0D0D0D;strokeColor=#66FFFF;fillColor=#E6E6E6;strokeWidth=2;" parent="1" source="LOjJa33kq37aPNoS52nW-21" target="LOjJa33kq37aPNoS52nW-37" edge="1">
          <mxGeometry relative="1" as="geometry" />
        </mxCell>
        <mxCell id="LOjJa33kq37aPNoS52nW-41" style="edgeStyle=orthogonalEdgeStyle;rounded=0;orthogonalLoop=1;jettySize=auto;html=1;entryX=0;entryY=0.5;entryDx=0;entryDy=0;fontColor=#0D0D0D;strokeColor=#66FFFF;fillColor=#E6E6E6;strokeWidth=2;" parent="1" source="LOjJa33kq37aPNoS52nW-21" target="LOjJa33kq37aPNoS52nW-40" edge="1">
          <mxGeometry relative="1" as="geometry" />
        </mxCell>
        <mxCell id="LOjJa33kq37aPNoS52nW-21" value="Timers" style="whiteSpace=wrap;html=1;fillColor=#E6E6E6;strokeColor=#66FFFF;fontColor=#0D0D0D;strokeWidth=2;" parent="1" vertex="1">
          <mxGeometry x="570" y="243.75" width="120" height="60" as="geometry" />
        </mxCell>
        <mxCell id="LOjJa33kq37aPNoS52nW-31" value="SERIE" style="whiteSpace=wrap;html=1;fillColor=#E6E6E6;strokeColor=#66FFFF;fontColor=#0D0D0D;strokeWidth=2;" parent="1" vertex="1">
          <mxGeometry x="66.56" y="460" width="120" height="60" as="geometry" />
        </mxCell>
        <mxCell id="LOjJa33kq37aPNoS52nW-33" value="USB" style="whiteSpace=wrap;html=1;fillColor=#E6E6E6;strokeColor=#66FFFF;fontColor=#0D0D0D;strokeWidth=2;" parent="1" vertex="1">
          <mxGeometry x="216.56" y="460" width="120" height="60" as="geometry" />
        </mxCell>
        <mxCell id="LOjJa33kq37aPNoS52nW-35" value="WIFI" style="whiteSpace=wrap;html=1;fillColor=#E6E6E6;strokeColor=#66FFFF;fontColor=#0D0D0D;strokeWidth=2;" parent="1" vertex="1">
          <mxGeometry x="359.69" y="460" width="120" height="60" as="geometry" />
        </mxCell>
        <mxCell id="LOjJa33kq37aPNoS52nW-37" value="TIMER1&lt;div&gt;Modo Upcounting&lt;/div&gt;" style="whiteSpace=wrap;html=1;fillColor=#E6E6E6;strokeColor=#66FFFF;fontColor=#0D0D0D;strokeWidth=2;" parent="1" vertex="1">
          <mxGeometry x="753.75" y="213.75" width="120" height="56.25" as="geometry" />
        </mxCell>
        <mxCell id="xJ_olGzIrYxLAFozkkYI-2" style="edgeStyle=orthogonalEdgeStyle;rounded=0;orthogonalLoop=1;jettySize=auto;html=1;entryX=0.5;entryY=0;entryDx=0;entryDy=0;strokeWidth=2;strokeColor=#66FFFF;" edge="1" parent="1" source="LOjJa33kq37aPNoS52nW-40" target="xJ_olGzIrYxLAFozkkYI-1">
          <mxGeometry relative="1" as="geometry" />
        </mxCell>
        <mxCell id="LOjJa33kq37aPNoS52nW-40" value="TIMER4&amp;nbsp;&lt;div&gt;Modo PWM&lt;/div&gt;" style="whiteSpace=wrap;html=1;fillColor=#E6E6E6;strokeColor=#66FFFF;fontColor=#0D0D0D;strokeWidth=2;" parent="1" vertex="1">
          <mxGeometry x="753.75" y="290" width="120" height="53.75" as="geometry" />
        </mxCell>
        <mxCell id="LOjJa33kq37aPNoS52nW-44" value="Display&lt;div&gt;SSD1306&lt;/div&gt;" style="whiteSpace=wrap;html=1;fillColor=#E6E6E6;strokeColor=#66FFFF;fontColor=#0D0D0D;strokeWidth=2;" parent="1" vertex="1">
          <mxGeometry x="753.75" y="63.75" width="120" height="56.25" as="geometry" />
        </mxCell>
        <mxCell id="LOjJa33kq37aPNoS52nW-45" value="Acelerómetro MPU6050" style="whiteSpace=wrap;html=1;fillColor=#E6E6E6;strokeColor=#66FFFF;fontColor=#0D0D0D;strokeWidth=2;" parent="1" vertex="1">
          <mxGeometry x="753.75" y="140" width="120" height="53.75" as="geometry" />
        </mxCell>
        <mxCell id="LOjJa33kq37aPNoS52nW-49" value="Sensor infrarrojo&lt;div&gt;TCRT5000&lt;/div&gt;" style="whiteSpace=wrap;html=1;fillColor=#E6E6E6;strokeColor=#66FFFF;fontColor=#0D0D0D;strokeWidth=2;" parent="1" vertex="1">
          <mxGeometry x="753.75" y="-40" width="120" height="60" as="geometry" />
        </mxCell>
        <mxCell id="LOjJa33kq37aPNoS52nW-54" value="20 KB de&amp;nbsp;&lt;div&gt;Memoria RAM&lt;/div&gt;" style="whiteSpace=wrap;html=1;fillColor=#E6E6E6;strokeColor=#66FFFF;fontColor=#0D0D0D;strokeWidth=2;" parent="1" vertex="1">
          <mxGeometry x="216.25" y="-40" width="113.75" height="60" as="geometry" />
        </mxCell>
        <mxCell id="LOjJa33kq37aPNoS52nW-55" value="2 KB de&amp;nbsp;&lt;div&gt;EEPROM&lt;/div&gt;" style="whiteSpace=wrap;html=1;fillColor=#E6E6E6;strokeColor=#66FFFF;fontColor=#0D0D0D;strokeWidth=2;" parent="1" vertex="1">
          <mxGeometry x="362.5" y="-40" width="113.75" height="60" as="geometry" />
        </mxCell>
        <mxCell id="LOjJa33kq37aPNoS52nW-56" value="62 KB de&amp;nbsp;&lt;div&gt;Memoria Flash&lt;/div&gt;" style="whiteSpace=wrap;html=1;fillColor=#E6E6E6;strokeColor=#66FFFF;fontColor=#0D0D0D;strokeWidth=2;" parent="1" vertex="1">
          <mxGeometry x="69.38" y="-40" width="113.75" height="60" as="geometry" />
        </mxCell>
        <mxCell id="LOjJa33kq37aPNoS52nW-89" value="" style="edgeStyle=orthogonalEdgeStyle;rounded=0;orthogonalLoop=1;jettySize=auto;html=1;fontColor=#0D0D0D;strokeColor=#66FFFF;fillColor=#E6E6E6;strokeWidth=2;" parent="1" source="LOjJa33kq37aPNoS52nW-70" target="LOjJa33kq37aPNoS52nW-88" edge="1">
          <mxGeometry relative="1" as="geometry" />
        </mxCell>
        <mxCell id="LOjJa33kq37aPNoS52nW-70" value="&lt;h2 style=&quot;font-size: 18px;&quot;&gt;Interrupciones&lt;br&gt;y&lt;span style=&quot;background-color: initial; font-size: 18px;&quot;&gt;&amp;nbsp;Eventos&lt;/span&gt;&lt;/h2&gt;" style="whiteSpace=wrap;html=1;fillColor=#E6E6E6;strokeColor=#66FFFF;fontSize=18;fontColor=#0D0D0D;strokeWidth=2;" parent="1" vertex="1">
          <mxGeometry x="20" y="130" width="130" height="60" as="geometry" />
        </mxCell>
        <mxCell id="LOjJa33kq37aPNoS52nW-88" value="&lt;div&gt;NVIC&lt;/div&gt;(Nested Vectored Interrupt Controller)" style="whiteSpace=wrap;html=1;fillColor=#E6E6E6;strokeColor=#66FFFF;fontColor=#0D0D0D;strokeWidth=2;" parent="1" vertex="1">
          <mxGeometry x="-140" y="130" width="120" height="60" as="geometry" />
        </mxCell>
        <mxCell id="LOjJa33kq37aPNoS52nW-104" style="edgeStyle=orthogonalEdgeStyle;rounded=0;orthogonalLoop=1;jettySize=auto;html=1;entryX=1;entryY=0.5;entryDx=0;entryDy=0;fontColor=#0D0D0D;strokeColor=#66FFFF;fillColor=#E6E6E6;strokeWidth=2;" parent="1" source="LOjJa33kq37aPNoS52nW-95" target="LOjJa33kq37aPNoS52nW-100" edge="1">
          <mxGeometry relative="1" as="geometry">
            <Array as="points">
              <mxPoint y="340" />
              <mxPoint y="290" />
            </Array>
          </mxGeometry>
        </mxCell>
        <mxCell id="LOjJa33kq37aPNoS52nW-105" style="edgeStyle=orthogonalEdgeStyle;rounded=0;orthogonalLoop=1;jettySize=auto;html=1;entryX=1;entryY=0.5;entryDx=0;entryDy=0;fontColor=#0D0D0D;strokeColor=#66FFFF;fillColor=#E6E6E6;strokeWidth=2;" parent="1" source="LOjJa33kq37aPNoS52nW-95" target="LOjJa33kq37aPNoS52nW-101" edge="1">
          <mxGeometry relative="1" as="geometry">
            <Array as="points">
              <mxPoint y="340" />
              <mxPoint y="400" />
            </Array>
          </mxGeometry>
        </mxCell>
        <mxCell id="2hEsS9jjBGfZLcal9isF-20" style="edgeStyle=orthogonalEdgeStyle;rounded=0;orthogonalLoop=1;jettySize=auto;html=1;entryX=0;entryY=0.5;entryDx=0;entryDy=0;strokeColor=#66FFFF;fillColor=#E6E6E6;strokeWidth=2;" parent="1" source="LOjJa33kq37aPNoS52nW-95" target="LOjJa33kq37aPNoS52nW-1" edge="1">
          <mxGeometry relative="1" as="geometry" />
        </mxCell>
        <mxCell id="LOjJa33kq37aPNoS52nW-95" value="&lt;h2&gt;&lt;font style=&quot;font-size: 18px;&quot;&gt;Periféricos&lt;/font&gt;&lt;/h2&gt;" style="whiteSpace=wrap;html=1;fillColor=#E6E6E6;strokeColor=#66FFFF;fontSize=18;fontColor=#0D0D0D;strokeWidth=2;" parent="1" vertex="1">
          <mxGeometry x="20" y="310" width="130" height="60" as="geometry" />
        </mxCell>
        <mxCell id="LOjJa33kq37aPNoS52nW-100" value="DMA&lt;div&gt;(&lt;span style=&quot;background-color: initial;&quot;&gt;Direct Access to Memory&lt;/span&gt;&lt;span style=&quot;background-color: initial;&quot;&gt;)&lt;/span&gt;&lt;/div&gt;" style="whiteSpace=wrap;html=1;fillColor=#E6E6E6;strokeColor=#66FFFF;fontColor=#0D0D0D;strokeWidth=2;" parent="1" vertex="1">
          <mxGeometry x="-140" y="260" width="120" height="60" as="geometry" />
        </mxCell>
        <mxCell id="LOjJa33kq37aPNoS52nW-101" value="GPIO&lt;div&gt;(&lt;span style=&quot;background-color: initial;&quot;&gt;General Purpose Input/Output&amp;nbsp;&lt;/span&gt;&lt;span style=&quot;background-color: initial;&quot;&gt;)&lt;/span&gt;&lt;/div&gt;" style="whiteSpace=wrap;html=1;fillColor=#E6E6E6;strokeColor=#66FFFF;fontColor=#0D0D0D;strokeWidth=2;" parent="1" vertex="1">
          <mxGeometry x="-140" y="370" width="120" height="60" as="geometry" />
        </mxCell>
        <mxCell id="2hEsS9jjBGfZLcal9isF-3" style="edgeStyle=orthogonalEdgeStyle;rounded=0;orthogonalLoop=1;jettySize=auto;html=1;entryX=0.479;entryY=0.014;entryDx=0;entryDy=0;entryPerimeter=0;strokeColor=#66FFFF;fillColor=#E6E6E6;strokeWidth=2;" parent="1" source="LOjJa33kq37aPNoS52nW-6" target="LOjJa33kq37aPNoS52nW-33" edge="1">
          <mxGeometry relative="1" as="geometry" />
        </mxCell>
        <mxCell id="xJ_olGzIrYxLAFozkkYI-4" style="edgeStyle=orthogonalEdgeStyle;rounded=0;orthogonalLoop=1;jettySize=auto;html=1;entryX=0.5;entryY=0;entryDx=0;entryDy=0;strokeWidth=2;strokeColor=#66FFFF;" edge="1" parent="1" source="xJ_olGzIrYxLAFozkkYI-1" target="xJ_olGzIrYxLAFozkkYI-3">
          <mxGeometry relative="1" as="geometry" />
        </mxCell>
        <mxCell id="xJ_olGzIrYxLAFozkkYI-1" value="DRIVER L9110" style="whiteSpace=wrap;html=1;fillColor=#E6E6E6;strokeColor=#66FFFF;fontColor=#0D0D0D;strokeWidth=2;" vertex="1" parent="1">
          <mxGeometry x="753.75" y="370" width="120" height="60" as="geometry" />
        </mxCell>
        <mxCell id="xJ_olGzIrYxLAFozkkYI-3" value="MOTORES N20" style="whiteSpace=wrap;html=1;fillColor=#E6E6E6;strokeColor=#66FFFF;fontColor=#0D0D0D;strokeWidth=2;" vertex="1" parent="1">
          <mxGeometry x="753.75" y="460" width="120" height="60" as="geometry" />
        </mxCell>
      </root>
    </mxGraphModel>
  </diagram>
</mxfile>
